<svg width="160" height="23" viewBox="0 0 160 23" fill="none" xmlns="http://www.w3.org/2000/svg">
<path d="M6.55259 22.8781C5.56263 22.8781 4.6591 22.7231 3.84199 22.413C3.04059 22.0875 2.35705 21.6224 1.79136 21.0178C1.22567 20.4132 0.785683 19.6846 0.47141 18.832C0.157137 17.9639 0 16.9795 0 15.8789V5.85672H3.18202V16.0649C3.18202 16.623 3.25273 17.1345 3.39415 17.5996C3.53557 18.0647 3.74771 18.4677 4.03055 18.8088C4.3134 19.1498 4.66696 19.4211 5.09122 19.6226C5.51549 19.8087 6.00262 19.9017 6.55259 19.9017C7.11829 19.9017 7.61327 19.8087 8.03753 19.6226C8.4618 19.4211 8.81536 19.1498 9.09821 18.8088C9.38105 18.4677 9.59319 18.0647 9.73461 17.5996C9.87603 17.1345 9.94674 16.623 9.94674 16.0649V5.85672H13.1288V15.8789C13.1288 16.9175 12.9716 17.8709 12.6573 18.739C12.3588 19.5916 11.9188 20.328 11.3374 20.9481C10.7717 21.5527 10.0803 22.0255 9.2632 22.3665C8.4618 22.7076 7.55827 22.8781 6.55259 22.8781Z" fill="#32333D"/>
<path d="M16.1445 5.85672H22.2964C23.1449 5.85672 23.9149 5.98849 24.6063 6.25202C25.2977 6.51556 25.887 6.87986 26.3741 7.34493C26.8769 7.80999 27.2619 8.36807 27.529 9.01916C27.7962 9.65475 27.9297 10.3523 27.9297 11.112C27.9297 11.67 27.8354 12.1971 27.6469 12.6932C27.4583 13.1737 27.199 13.6156 26.8691 14.0186C26.5391 14.4062 26.1541 14.755 25.7141 15.065C25.2741 15.3595 24.8106 15.5921 24.3235 15.7626L24.2999 15.9254L28.8254 22.32V22.506H25.172L20.8114 16.2509H19.3265V22.506H16.1445V5.85672ZM22.2728 13.3675C22.9956 13.3675 23.5849 13.1505 24.0406 12.7164C24.512 12.2824 24.7477 11.732 24.7477 11.0654C24.7477 10.7709 24.6927 10.4841 24.5827 10.2051C24.4884 9.92603 24.3392 9.678 24.1349 9.46097C23.9306 9.24394 23.6713 9.07342 23.3571 8.9494C23.0585 8.80988 22.7128 8.74012 22.32 8.74012H19.3265V13.3675H22.2728Z" fill="#32333D"/>
<path d="M45.3366 18.8631C44.6273 20.098 43.6676 21.0962 42.4576 21.8577C41.2684 22.6192 39.808 23 38.0765 23C36.9082 23 35.8233 22.8045 34.8219 22.4134C33.8414 22.0018 32.986 21.4358 32.2558 20.7154C31.5256 19.9951 30.9519 19.1512 30.5347 18.1839C30.1383 17.196 29.9401 16.1154 29.9401 14.9423C29.9401 13.8515 30.1383 12.8224 30.5347 11.855C30.9311 10.8671 31.4839 10.013 32.1932 9.29262C32.9026 8.55168 33.7371 7.9651 34.6967 7.53289C35.6773 7.10067 36.7517 6.88456 37.92 6.88456C39.1509 6.88456 40.2462 7.09038 41.2058 7.50201C42.1655 7.89306 42.9687 8.44877 43.6154 9.16913C44.2622 9.8689 44.7524 10.7025 45.0862 11.6698C45.42 12.6371 45.5869 13.6868 45.5869 14.8188C45.5869 14.9629 45.5869 15.0864 45.5869 15.1893C45.5661 15.3128 45.5556 15.426 45.5556 15.5289C45.5348 15.6318 45.5243 15.745 45.5243 15.8685H33.977C34.0604 16.4859 34.2273 17.021 34.4777 17.4738C34.7489 17.906 35.0723 18.2765 35.4478 18.5852C35.8442 18.8734 36.2719 19.0895 36.7308 19.2336C37.1898 19.357 37.6592 19.4188 38.139 19.4188C39.0778 19.4188 39.8498 19.213 40.4548 18.8013C41.0806 18.3691 41.5709 17.834 41.9256 17.196L45.3366 18.8631ZM41.6126 12.9973C41.5918 12.7298 41.4979 12.4313 41.331 12.102C41.185 11.7727 40.9555 11.464 40.6425 11.1758C40.3505 10.8877 39.9749 10.651 39.516 10.4658C39.0779 10.2805 38.5459 10.1879 37.92 10.1879C37.0438 10.1879 36.2719 10.4349 35.6043 10.9289C34.9367 11.4228 34.4673 12.1123 34.196 12.9973H41.6126Z" fill="#32333D"/>
<path d="M48.2051 22.506V0.401343H52.3046V22.506H48.2051Z" fill="#32333D"/>
<path d="M62.9219 6.88456C64.1111 6.88456 65.1959 7.09038 66.1765 7.50201C67.1779 7.89306 68.0332 8.44877 68.7425 9.16913C69.4727 9.8689 70.036 10.7128 70.4324 11.7007C70.8496 12.6886 71.0583 13.7691 71.0583 14.9423C71.0583 16.1154 70.8496 17.196 70.4324 18.1839C70.036 19.1718 69.4727 20.026 68.7425 20.7463C68.0332 21.4461 67.1779 22.0018 66.1765 22.4134C65.1959 22.8045 64.1111 23 62.9219 23C61.7328 23 60.6375 22.8045 59.6361 22.4134C58.6555 22.0018 57.8002 21.4461 57.07 20.7463C56.3607 20.026 55.7974 19.1718 55.3801 18.1839C54.9838 17.196 54.7856 16.1154 54.7856 14.9423C54.7856 13.7691 54.9838 12.6886 55.3801 11.7007C55.7974 10.7128 56.3607 9.8689 57.07 9.16913C57.8002 8.44877 58.6555 7.89306 59.6361 7.50201C60.6375 7.09038 61.7328 6.88456 62.9219 6.88456ZM62.9219 19.2644C63.4435 19.2644 63.9442 19.1718 64.424 18.9866C64.9247 18.7808 65.3628 18.4926 65.7383 18.1221C66.1139 17.7517 66.4059 17.2989 66.6146 16.7638C66.8441 16.2286 66.9588 15.6215 66.9588 14.9423C66.9588 14.2631 66.8441 13.6559 66.6146 13.1208C66.4059 12.5857 66.1139 12.1329 65.7383 11.7624C65.3628 11.3919 64.9247 11.1141 64.424 10.9289C63.9442 10.723 63.4435 10.6201 62.9219 10.6201C62.3795 10.6201 61.8684 10.723 61.3885 10.9289C60.9087 11.1141 60.481 11.3919 60.1055 11.7624C59.73 12.1329 59.4275 12.5857 59.198 13.1208C58.9893 13.6559 58.885 14.2631 58.885 14.9423C58.885 15.6215 58.9893 16.2286 59.198 16.7638C59.4275 17.2989 59.73 17.7517 60.1055 18.1221C60.481 18.4926 60.9087 18.7808 61.3885 18.9866C61.8684 19.1718 62.3795 19.2644 62.9219 19.2644Z" fill="#32333D"/>
<path d="M88.2439 18.647C87.5763 19.923 86.6375 20.9727 85.4274 21.796C84.2383 22.5987 82.7466 23 80.9524 23C79.7633 23 78.668 22.8045 77.6666 22.4134C76.6861 22.0018 75.8307 21.4358 75.1005 20.7154C74.3912 19.9951 73.8279 19.1512 73.4107 18.1839C73.0143 17.196 72.8161 16.1154 72.8161 14.9423C72.8161 13.7691 73.0143 12.6886 73.4107 11.7007C73.8279 10.7128 74.3912 9.8689 75.1005 9.16913C75.8307 8.44877 76.6861 7.89306 77.6666 7.50201C78.668 7.09038 79.7633 6.88456 80.9524 6.88456C82.7258 6.88456 84.2174 7.28591 85.4274 8.08859C86.6375 8.89127 87.5241 9.93065 88.0874 11.2067L84.3322 12.7503C83.9775 12.0506 83.5185 11.5257 82.9552 11.1758C82.4128 10.8054 81.7244 10.6201 80.8899 10.6201C80.3474 10.6201 79.8363 10.723 79.3565 10.9289C78.8766 11.1347 78.449 11.4228 78.0734 11.7933C77.7188 12.1638 77.4371 12.6166 77.2285 13.1517C77.0199 13.6868 76.9156 14.2837 76.9156 14.9423C76.9156 15.6009 77.0199 16.1978 77.2285 16.7329C77.4371 17.268 77.7188 17.7208 78.0734 18.0913C78.449 18.4617 78.8766 18.7499 79.3565 18.9557C79.8363 19.1615 80.3474 19.2644 80.8899 19.2644C81.7452 19.2644 82.465 19.0792 83.0491 18.7087C83.6541 18.3177 84.134 17.762 84.4886 17.0416L88.2439 18.647Z" fill="#32333D"/>
<path d="M100.043 20.9007H99.7925C99.3126 21.477 98.7285 21.9709 98.04 22.3826C97.3724 22.7942 96.5066 23 95.4426 23C94.6499 23 93.8988 22.8662 93.1895 22.5987C92.501 22.3517 91.896 22.0018 91.3745 21.549C90.8529 21.0962 90.4461 20.5508 90.154 19.9128C89.8619 19.2747 89.7159 18.5749 89.7159 17.8134C89.7159 17.0313 89.8724 16.3315 90.1853 15.7141C90.4982 15.0761 90.9363 14.5306 91.4996 14.0779C92.0629 13.6251 92.7201 13.2855 93.4711 13.0591C94.243 12.8121 95.0775 12.6886 95.9746 12.6886C96.976 12.6886 97.8001 12.7709 98.4468 12.9356C99.0936 13.0796 99.6256 13.234 100.043 13.3987V12.9356C100.043 12.1329 99.7194 11.4743 99.0727 10.9597C98.426 10.4246 97.6228 10.157 96.6631 10.157C95.2444 10.157 94.0449 10.7436 93.0643 11.9168L90.0914 9.91007C91.7187 7.89306 93.9405 6.88456 96.757 6.88456C99.1353 6.88456 100.95 7.44027 102.202 8.55168C103.454 9.64251 104.08 11.2685 104.08 13.4295V22.506H100.043V20.9007ZM100.043 16.3624C99.563 16.136 99.0623 15.9611 98.5407 15.8376C98.04 15.6935 97.4872 15.6215 96.8821 15.6215C95.9016 15.6215 95.1401 15.8376 94.5977 16.2698C94.0761 16.6814 93.8154 17.196 93.8154 17.8134C93.8154 18.4309 94.0657 18.9248 94.5664 19.2953C95.088 19.6658 95.6826 19.851 96.3502 19.851C96.8926 19.851 97.3933 19.7584 97.8522 19.5732C98.3112 19.3673 98.6972 19.1101 99.0101 18.8013C99.3439 18.472 99.5943 18.1016 99.7612 17.6899C99.9489 17.2577 100.043 16.8152 100.043 16.3624Z" fill="#32333D"/>
<path d="M108.723 10.8362H106.032V7.37852H108.723V2.74765H112.823V7.37852H116.578V10.8362H112.823V16.702C112.823 17.0519 112.854 17.3812 112.917 17.6899C113 17.9781 113.146 18.2251 113.355 18.4309C113.647 18.7602 114.064 18.9248 114.607 18.9248C114.961 18.9248 115.243 18.894 115.452 18.8322C115.66 18.7499 115.858 18.647 116.046 18.5235L117.204 22.0738C116.724 22.3002 116.203 22.4649 115.639 22.5678C115.097 22.6913 114.492 22.753 113.824 22.753C113.052 22.753 112.353 22.6398 111.728 22.4134C111.123 22.1664 110.611 21.8371 110.194 21.4255C109.214 20.4993 108.723 19.1821 108.723 17.4738V10.8362Z" fill="#32333D"/>
<path d="M122.031 5.18658C121.676 5.18658 121.332 5.12483 120.998 5.00134C120.685 4.85727 120.404 4.67204 120.153 4.44564C119.924 4.19866 119.736 3.92081 119.59 3.61208C119.465 3.30336 119.402 2.96376 119.402 2.59329C119.402 2.22282 119.465 1.88322 119.59 1.5745C119.736 1.26577 119.924 0.99821 120.153 0.771811C120.404 0.524832 120.685 0.339597 120.998 0.216106C121.332 0.0720355 121.676 0 122.031 0C122.761 0 123.387 0.25727 123.909 0.771811C124.43 1.26577 124.691 1.87293 124.691 2.59329C124.691 3.31365 124.43 3.9311 123.909 4.44564C123.387 4.9396 122.761 5.18658 122.031 5.18658ZM119.997 22.506V7.37852H124.096V22.506H119.997Z" fill="#32333D"/>
<path d="M134.952 6.88456C136.142 6.88456 137.226 7.09038 138.207 7.50201C139.208 7.89306 140.064 8.44877 140.773 9.16913C141.503 9.8689 142.066 10.7128 142.463 11.7007C142.88 12.6886 143.089 13.7691 143.089 14.9423C143.089 16.1154 142.88 17.196 142.463 18.1839C142.066 19.1718 141.503 20.026 140.773 20.7463C140.064 21.4461 139.208 22.0018 138.207 22.4134C137.226 22.8045 136.142 23 134.952 23C133.763 23 132.668 22.8045 131.667 22.4134C130.686 22.0018 129.831 21.4461 129.1 20.7463C128.391 20.026 127.828 19.1718 127.411 18.1839C127.014 17.196 126.816 16.1154 126.816 14.9423C126.816 13.7691 127.014 12.6886 127.411 11.7007C127.828 10.7128 128.391 9.8689 129.1 9.16913C129.831 8.44877 130.686 7.89306 131.667 7.50201C132.668 7.09038 133.763 6.88456 134.952 6.88456ZM134.952 19.2644C135.474 19.2644 135.975 19.1718 136.454 18.9866C136.955 18.7808 137.393 18.4926 137.769 18.1221C138.144 17.7517 138.436 17.2989 138.645 16.7638C138.874 16.2286 138.989 15.6215 138.989 14.9423C138.989 14.2631 138.874 13.6559 138.645 13.1208C138.436 12.5857 138.144 12.1329 137.769 11.7624C137.393 11.3919 136.955 11.1141 136.454 10.9289C135.975 10.723 135.474 10.6201 134.952 10.6201C134.41 10.6201 133.899 10.723 133.419 10.9289C132.939 11.1141 132.511 11.3919 132.136 11.7624C131.76 12.1329 131.458 12.5857 131.228 13.1208C131.02 13.6559 130.915 14.2631 130.915 14.9423C130.915 15.6215 131.02 16.2286 131.228 16.7638C131.458 17.2989 131.76 17.7517 132.136 18.1221C132.511 18.4926 132.939 18.7808 133.419 18.9866C133.899 19.1718 134.41 19.2644 134.952 19.2644Z" fill="#32333D"/>
<path d="M149.266 9.35436H149.517C149.996 8.59284 150.643 7.99597 151.457 7.56376C152.27 7.11096 153.199 6.88456 154.242 6.88456C155.202 6.88456 156.047 7.03893 156.777 7.34765C157.507 7.65638 158.102 8.09888 158.561 8.67517C159.04 9.23087 159.395 9.91007 159.624 10.7128C159.875 11.4949 160 12.3696 160 13.3369V22.506H155.901V13.8309C155.901 12.74 155.65 11.9374 155.149 11.4228C154.67 10.8877 153.96 10.6201 153.022 10.6201C152.458 10.6201 151.958 10.7436 151.519 10.9906C151.102 11.217 150.737 11.536 150.424 11.9477C150.132 12.3387 149.903 12.8121 149.736 13.3678C149.59 13.9029 149.517 14.4792 149.517 15.0966V22.506H145.417V7.37852H149.266V9.35436Z" fill="#32333D"/>
</svg>
